<svg xmlns:osb="http://www.openswatchbook.org/uri/2009/osb" xmlns="http://www.w3.org/2000/svg" xmlns:xlink="http://www.w3.org/1999/xlink" height="302.698" width="500"><defs><linearGradient gradientTransform="translate(-563.247 -238.238)" y2="284.886" x2="608.119" y1="284.886" x1="587.671" gradientUnits="userSpaceOnUse" id="d" xlink:href="#a"/><linearGradient gradientTransform="translate(-5772.061 17120.383)" osb:paint="solid" id="a"><stop offset="0" stop-color="#1bd5d0"/></linearGradient><linearGradient gradientTransform="translate(-563.247 -238.238)" y2="284.886" x2="618.578" y1="284.886" x1="598.13" gradientUnits="userSpaceOnUse" id="c" xlink:href="#a"/><linearGradient gradientTransform="translate(215.368 572.382)" y2="-649.52" x2="-211.844" y1="-649.52" x1="-236.816" gradientUnits="userSpaceOnUse" id="b" xlink:href="#a"/></defs><path d="M-18.29-89.624H.366a3.15 3.15 0 0 1 3.158 3.158v18.657a3.15 3.15 0 0 1-3.158 3.157H-18.29a3.15 3.15 0 0 1-3.158-3.157v-18.657a3.15 3.15 0 0 1 3.158-3.158z" transform="rotate(133.547 -52.866 -188.77) scale(9.25769)" fill="url(#b)"/><path d="M55.332 60.457L43.565 49.273a3.152 3.152 0 0 1-.114-4.465l11.375-11.97-1.755-1.665a3.152 3.152 0 0 0-4.464.11L35.755 44.809a3.152 3.152 0 0 0 .114 4.465l13.52 12.852a3.152 3.152 0 0 0 4.466-.114l1.477-1.555z" opacity=".5" fill="url(#c)" transform="matrix(9.25769 0 0 9.25769 -226.11 -280.503)"/><path d="M44.872 60.457L33.106 49.273a3.152 3.152 0 0 1-.114-4.465l11.375-11.97-1.755-1.665a3.152 3.152 0 0 0-4.465.11L25.295 44.809a3.152 3.152 0 0 0 .115 4.465l13.52 12.852a3.152 3.152 0 0 0 4.465-.114l1.477-1.555z" opacity=".25" fill="url(#d)" transform="matrix(9.25769 0 0 9.25769 -226.11 -280.503)"/></svg>
